<svg xmlns="http://www.w3.org/2000/svg" viewBox="0 0 47.42 43.72"><g id="Layer_2" data-name="Layer 2"><g id="Layer_2-2" data-name="Layer 2"><path d="M23.71,43.72A21.48,21.48,0,0,1,2.9,27.6a.75.75,0,0,1,.53-.9.76.76,0,0,1,.91.53,20,20,0,0,0,39.38-5,.74.74,0,1,1,1.48,0A21.51,21.51,0,0,1,23.71,43.72Z"></path><path d="M3,22.23a.74.74,0,0,1-.74-.74,21.49,21.49,0,0,1,42.3-5.38A.76.76,0,0,1,44,17a.74.74,0,0,1-.9-.54,20,20,0,0,0-39.39,5A.74.74,0,0,1,3,22.23Z"></path><path d="M3,22.23A.7.7,0,0,1,2.44,22L.22,19.79a.74.74,0,0,1,0-1.05.73.73,0,0,1,1,0L3.49,21A.75.75,0,0,1,3,22.23Z"></path><path d="M3,22.23A.7.7,0,0,1,2.44,22a.74.74,0,0,1,0-1.05l2.22-2.22a.74.74,0,0,1,1,1.05L3.49,22A.74.74,0,0,1,3,22.23Z"></path><path d="M46.68,24.45a.7.7,0,0,1-.52-.22L43.93,22A.74.74,0,1,1,45,21l2.22,2.23a.73.73,0,0,1,0,1A.7.7,0,0,1,46.68,24.45Z"></path><path d="M42.24,24.45a.74.74,0,0,1-.53-.22.73.73,0,0,1,0-1L43.93,21A.74.74,0,1,1,45,22l-2.22,2.22A.74.74,0,0,1,42.24,24.45Z"></path><path d="M10.37,38.86a.74.74,0,0,1-.74-.74V19.26a.74.74,0,0,1,1.48,0V38.12A.74.74,0,0,1,10.37,38.86Z"></path><path d="M37.05,38.86a.74.74,0,0,1-.74-.74V19.26a.74.74,0,1,1,1.48,0V38.12A.74.74,0,0,1,37.05,38.86Z"></path><path d="M37.05,20H10.37a.74.74,0,0,1,0-1.48H37.05a.74.74,0,1,1,0,1.48Z"></path><path d="M10.37,20a.76.76,0,0,1-.38-.11.73.73,0,0,1-.25-1L12,15.17a.74.74,0,0,1,1-.25.73.73,0,0,1,.25,1L11,19.64A.75.75,0,0,1,10.37,20Z"></path><path d="M37.05,20a.75.75,0,0,1-.64-.36l-2.22-3.71a.74.74,0,0,1,1.27-.76l2.23,3.71a.74.74,0,0,1-.26,1A.76.76,0,0,1,37.05,20Z"></path><path d="M34.83,16.29H12.6a.74.74,0,1,1,0-1.48H34.83a.74.74,0,1,1,0,1.48Z"></path><path d="M20.75,20l-.15,0a.74.74,0,0,1-.58-.87l.74-3.7a.74.74,0,1,1,1.45.29l-.74,3.7A.74.74,0,0,1,20.75,20Z"></path><path d="M26.67,20a.74.74,0,0,1-.72-.6l-.74-3.7a.75.75,0,0,1,.58-.88.73.73,0,0,1,.87.59l.74,3.7a.74.74,0,0,1-.58.87Z"></path><path d="M20.75,24.44A.75.75,0,0,1,20,23.7V19.26a.75.75,0,0,1,.75-.74.74.74,0,0,1,.74.74V23.7A.74.74,0,0,1,20.75,24.44Z"></path><path d="M26.67,24.44a.74.74,0,0,1-.74-.74V19.26a.75.75,0,0,1,1.49,0V23.7A.75.75,0,0,1,26.67,24.44Z"></path><path d="M26.68,24.44a.55.55,0,0,1-.18,0l-3-.74a.74.74,0,0,1-.54-.9.75.75,0,0,1,.9-.54l3,.74a.74.74,0,0,1,.54.9A.73.73,0,0,1,26.68,24.44Z"></path><path d="M20.74,24.44a.73.73,0,0,1-.71-.56.74.74,0,0,1,.54-.9l3-.74a.75.75,0,0,1,.9.54.74.74,0,0,1-.54.9l-3,.74A.55.55,0,0,1,20.74,24.44Z"></path><path d="M30.38,33.34H17a.74.74,0,0,1,0-1.48H30.38a.74.74,0,1,1,0,1.48Z"></path><path d="M30.38,30.38H17a.74.74,0,0,1,0-1.48H30.38a.74.74,0,0,1,0,1.48Z"></path><path d="M26.68,36.3H20.75a.74.74,0,1,1,0-1.48h5.93a.74.74,0,1,1,0,1.48Z"></path></g></g></svg>