<svg xmlns="http://www.w3.org/2000/svg" viewBox="0 0 45.73 38.07"><g id="Layer_2" data-name="Layer 2"><g id="Layer_2-2" data-name="Layer 2"><path d="M23.29,24.83a2.39,2.39,0,0,1,0-4.77,2.41,2.41,0,0,1,2.4,2.39,2.41,2.41,0,0,1-2.37,2.38Z"></path><path d="M36.9,24.83a2.41,2.41,0,0,1-2.38-2.39,2.4,2.4,0,0,1,2.36-2.38h0a2.38,2.38,0,0,1,1.69.71,2.37,2.37,0,0,1-1.66,4.06Z"></path><path d="M30.11,24.83a2.42,2.42,0,0,1-2.39-2.41,2.43,2.43,0,0,1,2.38-2.36,2.35,2.35,0,0,1,1.69.72,2.38,2.38,0,0,1,.71,1.69,2.43,2.43,0,0,1-2.39,2.36Z"></path><path d="M30.11,38.07a15.67,15.67,0,0,1-12.79-6.66c-.12-.17-.17-.21-.29-.21-.51,0-1,.05-1.41.05a15.67,15.67,0,0,1-7.85-2.09.38.38,0,0,0-.19,0c-1.6.32-3.1.65-4.61,1l-.63.14a2.57,2.57,0,0,1-.55.07A.8.8,0,0,1,1.13,30,1.29,1.29,0,0,1,1,28.93l.29-1.31c.27-1.22.54-2.45.78-3.68A1.05,1.05,0,0,0,2,23.31,15.64,15.64,0,0,1,11.91.46,14.9,14.9,0,0,1,15.62,0a15.54,15.54,0,0,1,12.7,6.55.61.61,0,0,0,.58.33H29c.38,0,.76,0,1.14,0a15.54,15.54,0,0,1,14.4,9.68,15.3,15.3,0,0,1,1.17,5.93,15.69,15.69,0,0,1-2,7.75.81.81,0,0,0-.07.49c.26,1.28.54,2.56.82,3.83l.28,1.25a1.28,1.28,0,0,1-.11,1.09.8.8,0,0,1-.66.27,2.85,2.85,0,0,1-.52-.06l-1.32-.29c-1.26-.28-2.51-.55-3.77-.81h-.13a.8.8,0,0,0-.36.08,15.76,15.76,0,0,1-7.74,2Zm0-29.51A14.8,14.8,0,0,0,28,8.71a13.89,13.89,0,1,0,8.87,25.85,2.69,2.69,0,0,1,1.31-.37,2.63,2.63,0,0,1,.67.09c1,.25,2.1.47,3.18.7l.63.13a.09.09,0,0,0,.07,0,.08.08,0,0,0,0-.09l-.14-.65c-.26-1.21-.51-2.37-.77-3.53a1.65,1.65,0,0,1,.21-1.31,13.5,13.5,0,0,0,1.73-9.41A13.9,13.9,0,0,0,30.1,8.56ZM7.66,27.37a1.77,1.77,0,0,1,.84.21,14.22,14.22,0,0,0,4.19,1.64,13.43,13.43,0,0,0,2.81.33H16a.1.1,0,0,0,.08-.05.14.14,0,0,0,0-.09A15.4,15.4,0,0,1,16,15.77,15.46,15.46,0,0,1,26.48,7.18a.1.1,0,0,0,.07-.07.1.1,0,0,0,0-.09A13.5,13.5,0,0,0,15.85,1.75a16.31,16.31,0,0,0-2.18.15A13.87,13.87,0,0,0,1.73,15.83a14,14,0,0,0,1.92,6.89,1.88,1.88,0,0,1,.21,1.22c-.1.63-.25,1.26-.39,1.89-.06.28-.13.56-.19.84-.1.5-.21,1-.31,1.52a.1.1,0,0,0,0,.09.11.11,0,0,0,.07,0l1-.21c1.15-.25,2.24-.49,3.34-.7A1.36,1.36,0,0,1,7.66,27.37Z"></path></g></g></svg>