<svg xmlns="http://www.w3.org/2000/svg" data-name="Layer 1" viewBox="0 0 100 125" x="0px" y="0px"><defs><style>.cls-1{fill-rule:evenodd;}</style></defs><title>a</title><path class="cls-1" d="M43.286,80.853a6.115,6.115,0,1,0,1.791,4.324,6.093,6.093,0,0,0-1.791-4.324Zm-4.324,2.313a2.011,2.011,0,1,1-2.011,2.011,2.011,2.011,0,0,1,2.011-2.011Zm35.177-2.313a6.115,6.115,0,1,0,1.791,4.324,6.094,6.094,0,0,0-1.791-4.324Zm4.573.156a9.822,9.822,0,1,1-17.8,0H47.86a9.823,9.823,0,1,1-17.785-.025A12.388,12.388,0,0,1,26.75,56.933L15.917,16.505h-4.55a5.753,5.753,0,1,1,0-11.5v.007l8.957,0a5.741,5.741,0,0,1,5.55,4.257l3.582,13.369H88.643a5.753,5.753,0,0,1,4.583,2.274,5.708,5.708,0,0,1,1.16,3.463,6.164,6.164,0,0,1-.253,1.725L85.281,63.135a5.752,5.752,0,0,1-5.924,4.249l-48.469.3a.894.894,0,0,0-.63.272,1.036,1.036,0,0,0-.221.329.94.94,0,0,0-.081.364.849.849,0,0,0,.278.588.935.935,0,0,0,.295.2.864.864,0,0,0,.336.065H78.558a5.753,5.753,0,0,1,.154,11.5Zm-8.9-5.655A9.781,9.781,0,0,1,75.689,77.3h2.869a2.045,2.045,0,1,0,0-4.089H30.865a4.537,4.537,0,0,1-1.756-.355,4.649,4.649,0,0,1-1.5-1,4.491,4.491,0,0,1-1.351-3.195,4.614,4.614,0,0,1,.356-1.811,4.753,4.753,0,0,1,1.018-1.517,4.57,4.57,0,0,1,3.237-1.345l48.588-.3h.13a2.057,2.057,0,0,0,1.336-.38,2.029,2.029,0,0,0,.777-1.131L90.56,29.127l.014-.051a2.441,2.441,0,0,0,.1-.7,2.005,2.005,0,0,0-1.44-1.946,2.082,2.082,0,0,0-.595-.083H26.616L22.3,10.225a2.017,2.017,0,0,0-.721-1.088,2.059,2.059,0,0,0-1.251-.432l-8.957,0v.007a2.045,2.045,0,1,0,0,4.089h7.391L31.326,59.7l-1.983.355a8.732,8.732,0,0,0-5.15,2.986A8.7,8.7,0,0,0,30.865,77.3h2.222a9.828,9.828,0,0,1,11.749,0h19.1a9.784,9.784,0,0,1,5.875-1.949Zm0,7.812A2.011,2.011,0,1,1,67.8,85.177a2.01,2.01,0,0,1,2.011-2.011Zm-2.25-31.942-1.281,4.781,9.027-.056,1.267-4.725Zm2.289-8.541-1.3,4.833h9.012l1.3-4.833Zm2.288-8.54-1.3,4.832H79.86l1.206-4.5.088-.33ZM43.174,38.975l-1.3-4.832h-9.34l1.3,4.832Zm2.288,8.541-1.3-4.833h-9.34l1.3,4.833Zm2.306,8.6-1.312-4.9H37.115l1.328,4.954,9.325-.058Zm7.388-17.145V34.143H45.712l1.295,4.832Zm0,8.541V42.683H48l1.3,4.833Zm0,8.558v-4.85H50.289L51.6,56.1l3.561-.022Zm2.03,3.681,6.376-.04a1.82,1.82,0,0,0,.625,0l11.271-.069a3.521,3.521,0,0,0,3.4-2.611l0-.007h0l1.9-7.078c.02-.063.038-.128.052-.194l3.982-14.864a3.485,3.485,0,0,0,.06-1.6,3.541,3.541,0,0,0-3.476-2.854H32.321a3.525,3.525,0,0,0-3.416,4.453l3.982,14.863a1.907,1.907,0,0,0,.053.2L34.9,57.254a3.514,3.514,0,0,0,3.434,2.618L49.9,59.8a1.837,1.837,0,0,0,.573,0l6.381-.039c.05,0,.1.006.152.006s.118,0,.176-.008Zm1.678-8.531v4.827l3.58-.022,1.288-4.805Zm0-8.541v4.833h5.861l1.3-4.833Zm0-8.54v4.832h8.15l1.294-4.832Z"/></svg>