<svg xmlns="http://www.w3.org/2000/svg" viewBox="0 0 18.78 20.04">
            <g id="Layer_2" data-name="Layer 2">
                <g id="Layer_2-2" data-name="Layer 2">
                    <path d="M6.43,10.75,6,10.48A5.54,5.54,0,0,1,3.47,6,5.48,5.48,0,0,1,5.78,1.2a6,6,0,0,1,8.25,1A5.62,5.62,0,0,1,13.37,10c-.29.25-.62.45-.93.67l-.09.07.19.06a8.72,8.72,0,0,1,5.25,4.72,10.6,10.6,0,0,1,1,3.58,1.77,1.77,0,0,1,0,.23.65.65,0,0,1-.62.7.66.66,0,0,1-.7-.64,14.28,14.28,0,0,0-.22-1.46,8.5,8.5,0,0,0-1.81-3.7,7.51,7.51,0,0,0-3.92-2.4,9.51,9.51,0,0,0-2-.32,6.07,6.07,0,0,0-1.12.11,8.61,8.61,0,0,0-3,1,7.46,7.46,0,0,0-2.93,3,9.25,9.25,0,0,0-1.09,3.81.66.66,0,0,1-.7.63A.64.64,0,0,1,0,19.36a9.2,9.2,0,0,1,.48-2.54,9.47,9.47,0,0,1,2.32-3.9,8.66,8.66,0,0,1,3.28-2.05ZM9.16,1.29A4.41,4.41,0,0,0,6,2.7,4.23,4.23,0,0,0,4.94,6.93,4.53,4.53,0,0,0,9,10.21a4.52,4.52,0,0,0,3.78-1.43,4.18,4.18,0,0,0,1.06-4.21A4.64,4.64,0,0,0,9.16,1.29Z"></path>
                </g>
            </g>
        </svg>